<svg aria-hidden="true" viewBox="0 0 20 21" xmlns="http://www.w3.org/2000/svg">
  <path d="M9.99 0.47522C4.47 0.47522 0 4.95522 0 10.4752C0 15.9952 4.47 20.4752 9.99 20.4752C15.52 20.4752 20 15.9952 20 10.4752C20 4.95522 15.52 0.47522 9.99 0.47522ZM16.92 6.47522H13.97C13.65 5.22522 13.19 4.02522 12.59 2.91522C14.43 3.54522 15.96 4.82522 16.92 6.47522ZM10 2.51522C10.83 3.71522 11.48 5.04522 11.91 6.47522H8.09C8.52 5.04522 9.17 3.71522 10 2.51522ZM2.26 12.4752C2.1 11.8352 2 11.1652 2 10.4752C2 9.78522 2.1 9.11522 2.26 8.47522H5.64C5.56 9.13522 5.5 9.79522 5.5 10.4752C5.5 11.1552 5.56 11.8152 5.64 12.4752H2.26ZM3.08 14.4752H6.03C6.35 15.7252 6.81 16.9252 7.41 18.0352C5.57 17.4052 4.04 16.1352 3.08 14.4752ZM6.03 6.47522H3.08C4.04 4.81522 5.57 3.54522 7.41 2.91522C6.81 4.02522 6.35 5.22522 6.03 6.47522ZM10 18.4352C9.17 17.2352 8.52 15.9052 8.09 14.4752H11.91C11.48 15.9052 10.83 17.2352 10 18.4352ZM12.34 12.4752H7.66C7.57 11.8152 7.5 11.1552 7.5 10.4752C7.5 9.79522 7.57 9.12522 7.66 8.47522H12.34C12.43 9.12522 12.5 9.79522 12.5 10.4752C12.5 11.1552 12.43 11.8152 12.34 12.4752ZM12.59 18.0352C13.19 16.9252 13.65 15.7252 13.97 14.4752H16.92C15.96 16.1252 14.43 17.4052 12.59 18.0352ZM14.36 12.4752C14.44 11.8152 14.5 11.1552 14.5 10.4752C14.5 9.79522 14.44 9.13522 14.36 8.47522H17.74C17.9 9.11522 18 9.78522 18 10.4752C18 11.1652 17.9 11.8352 17.74 12.4752H14.36Z"/>
</svg>
