<svg aria-hidden="true" viewBox="0 0 27 27" xmlns="http://www.w3.org/2000/svg">
  <path d="M 13.47 6.643 C 8.47 6.643 4.2 9.753 2.47 14.143 C 4.2 18.533 8.47 21.643 13.47 21.643 C 18.47 21.643 22.74 18.533 24.47 14.143 C 22.74 9.753 18.47 6.643 13.47 6.643 Z M 13.47 19.143 C 10.71 19.143 8.47 16.903 8.47 14.143 C 8.47 11.383 10.71 9.143 13.47 9.143 C 16.23 9.143 18.47 11.383 18.47 14.143 C 18.47 16.903 16.23 19.143 13.47 19.143 Z M 13.47 11.143 C 11.81 11.143 10.47 12.483 10.47 14.143 C 10.47 15.803 11.81 17.143 13.47 17.143 C 15.13 17.143 16.47 15.803 16.47 14.143 C 16.47 12.483 15.13 11.143 13.47 11.143 Z"></path>
</svg>
