<svg aria-hidden="true" xmlns="http://www.w3.org/2000/svg" viewBox="0 0 27 27">
  <path d="M23.614 14.812c.055-.426.096-.853.096-1.305 0-.453-.041-.88-.096-1.307l2.879-2.197c.258-.199.328-.56.163-.853l-2.729-4.609c-.163-.294-.532-.399-.832-.294L19.699 5.58c-.709-.532-1.473-.972-2.306-1.304L16.874.743c-.04-.319-.327-.558-.668-.558h-5.459c-.339 0-.626.239-.667.558l-.518 3.533c-.834.332-1.597.785-2.306 1.304L3.858 4.247c-.315-.119-.669 0-.833.294L.297 9.15c-.177.293-.096.654.164.853L3.34 12.2c-.055.427-.095.866-.095 1.307 0 .439.04.879.095 1.305L.461 17.011c-.26.2-.327.558-.164.851l2.728 4.608c.164.295.532.401.833.295l3.398-1.334c.709.534 1.472.974 2.306 1.306l.518 3.53c.041.32.328.561.667.561h5.459c.341 0 .628-.241.668-.561l.519-3.53c.833-.332 1.597-.786 2.306-1.306l3.396 1.334c.314.119.669 0 .832-.295l2.729-4.608c.165-.293.095-.651-.163-.851l-2.879-2.199zm-10.136 3.357c-2.634 0-4.778-2.093-4.778-4.662 0-2.572 2.144-4.663 4.778-4.663 2.632 0 4.773 2.091 4.773 4.663 0 2.569-2.141 4.662-4.773 4.662z"/>
</svg>
