<svg  viewBox="0 0 136 136" fill="none" xmlns="http://www.w3.org/2000/svg">
<circle cx="68.0002" cy="68.0002" r="67.7092" fill="white"/>
<path fill-rule="evenodd" clip-rule="evenodd" d="M97.482 56.7684C98.3159 56.7684 99.1049 57.139 99.6384 57.7764C100.169 58.4166 100.394 59.259 100.245 60.0789L94.6292 90.9655C94.3849 92.2992 93.2224 93.2708 91.8662 93.2708H69.4032C69.0466 93.2708 68.69 93.2034 68.3615 93.0714L58.1717 88.9972V62.3841L66.8228 44.4278C67.2636 43.3973 68.2801 42.729 69.4032 42.729H77.8269C79.3796 42.729 80.6347 43.9869 80.6347 45.5369V56.7684H97.482ZM38.5169 59.5764H49.7484C51.3011 59.5764 52.5562 60.8343 52.5562 62.3842V90.463C52.5562 92.013 51.3011 93.2709 49.7484 93.2709H38.5169C36.9641 93.2709 35.709 92.013 35.709 90.463V62.3842C35.709 60.8343 36.9641 59.5764 38.5169 59.5764Z" fill="#008EDE"/>
</svg>
