<svg aria-hidden="true" viewBox="0 0 48 48" xmlns="http://www.w3.org/2000/svg">
  <path d="M47.748 44.5193L26.1473 1.22136C25.3337 -0.407121 22.6672 -0.407121 21.8535 1.22136L0.252832 44.5193C-0.11678 45.265 -0.0807785 46.1478 0.358436 46.8622C0.79525 47.5694 1.56567 48 2.3985 48H45.5999C46.4327 48 47.2032 47.567 47.6424 46.8598C48.0792 46.1478 48.1176 45.2674 47.748 44.5193ZM21.5991 19.1347H26.3993V33.5673H21.5991V19.1347ZM23.9992 41.385C22.3432 41.385 20.9991 40.0404 20.9991 38.3782C20.9991 36.7185 22.3432 35.3714 23.9992 35.3714C25.6553 35.3714 26.9993 36.7185 26.9993 38.3782C26.9993 40.0404 25.6553 41.385 23.9992 41.385Z" />
</svg>
