<?xml version="1.0" standalone="no"?>
<!DOCTYPE svg PUBLIC "-//W3C//DTD SVG 20010904//EN"
 "http://www.w3.org/TR/2001/REC-SVG-20010904/DTD/svg10.dtd">
<svg version="1.0" xmlns="http://www.w3.org/2000/svg"
 width="880.000000pt" height="880.000000pt" viewBox="0 0 880.000000 880.000000"
 preserveAspectRatio="xMidYMid meet">
<metadata>
Created by potrace 1.14, written by Peter Selinger 2001-2017
</metadata>
<g transform="translate(0.000000,880.000000) scale(0.100000,-0.100000)"
fill="#000000" stroke="none">
<path d="M4318 8783 c-2 -10 -1 -30 3 -45 4 -16 5 -28 1 -28 -4 0 -7 -25 -7
-55 0 -30 3 -55 7 -55 4 0 3 -13 -2 -30 -5 -16 -6 -30 -2 -30 4 0 6 -21 5 -47
-1 -27 -2 -48 -3 -48 -5 0 -4 -139 2 -148 3 -6 2 -19 -3 -28 -6 -11 -5 -20 1
-24 6 -4 7 -13 1 -24 -5 -9 -6 -23 -1 -31 4 -7 6 -18 4 -24 -7 -17 -10 -106
-4 -106 3 0 5 -20 5 -45 0 -25 -2 -45 -5 -45 -5 0 -4 -58 0 -70 1 -3 1 -9 0
-15 -5 -22 -2 -114 5 -124 3 -6 3 -11 -2 -11 -4 0 -8 -25 -8 -55 0 -30 3 -55
7 -55 4 0 3 -13 -2 -30 -5 -16 -5 -30 -1 -30 4 0 5 -22 1 -48 -3 -27 -3 -61 1
-75 4 -15 4 -27 1 -27 -4 0 -7 -25 -7 -55 0 -30 3 -55 7 -55 4 0 3 -13 -2 -30
-5 -16 -6 -30 -2 -30 4 0 6 -21 5 -47 -1 -27 -2 -48 -3 -48 -5 0 -4 -139 2
-148 3 -6 2 -19 -3 -28 -6 -11 -5 -20 1 -24 6 -4 7 -13 1 -24 -5 -9 -6 -23 -1
-31 4 -7 6 -18 4 -24 -7 -17 -10 -106 -4 -106 3 0 5 -20 5 -45 0 -25 -2 -45
-5 -45 -5 0 -4 -58 0 -70 1 -3 1 -9 0 -15 -5 -22 -2 -114 5 -124 3 -6 3 -11
-2 -11 -4 0 -8 -25 -8 -55 0 -30 3 -55 7 -55 4 0 3 -13 -2 -30 -5 -16 -5 -30
-1 -30 4 0 5 -22 1 -48 -3 -27 -3 -61 1 -75 4 -15 4 -27 1 -27 -4 0 -7 -25 -7
-55 0 -30 3 -55 7 -55 4 0 3 -13 -2 -30 -5 -16 -6 -30 -2 -30 4 0 6 -21 5 -47
-1 -27 -2 -48 -3 -48 -5 0 -4 -139 2 -148 3 -6 2 -19 -3 -28 -6 -11 -5 -20 1
-24 6 -4 7 -13 1 -24 -5 -9 -6 -23 -1 -31 4 -7 6 -18 4 -24 -7 -17 -10 -106
-4 -106 3 0 5 -20 5 -45 0 -25 -2 -45 -5 -45 -5 0 -4 -58 0 -70 1 -3 1 -9 0
-15 -5 -22 -2 -114 5 -124 3 -6 3 -11 -2 -11 -4 0 -8 -25 -8 -55 0 -30 3 -55
7 -55 4 0 3 -13 -2 -30 -5 -16 -5 -30 -1 -30 4 0 5 -22 1 -48 -3 -27 -3 -61 1
-75 4 -15 4 -27 1 -27 -4 0 -7 -25 -7 -55 0 -30 3 -55 7 -55 4 0 3 -13 -2 -30
-5 -16 -6 -30 -2 -30 4 0 6 -21 5 -47 -1 -27 -2 -48 -3 -48 -5 0 -4 -139 2
-148 3 -6 2 -19 -3 -28 -6 -11 -5 -20 1 -24 6 -4 7 -13 1 -24 -5 -9 -6 -23 -1
-31 4 -7 6 -18 4 -24 -7 -17 -10 -106 -4 -106 3 0 5 -20 5 -45 0 -25 -2 -45
-5 -45 -5 0 -4 -58 0 -70 1 -3 1 -9 0 -15 -5 -22 -2 -114 5 -124 3 -6 3 -11
-2 -11 -4 0 -8 -25 -8 -55 0 -30 3 -55 7 -55 4 0 3 -13 -2 -30 -5 -16 -5 -30
0 -30 4 0 5 -15 1 -33 -5 -18 -5 -41 -1 -52 4 -11 5 -24 2 -29 -7 -12 -9 -66
-2 -66 3 0 5 -18 5 -40 0 -22 -2 -40 -5 -40 -7 0 -5 -64 2 -76 3 -5 2 -18 -2
-29 -4 -11 -4 -30 1 -41 4 -12 5 -25 1 -28 -7 -8 -5 -124 4 -137 3 -5 2 -9 -3
-9 -9 0 -9 -67 -1 -75 3 -3 2 -22 -2 -43 -3 -20 -3 -49 1 -65 4 -15 4 -27 1
-27 -4 0 -7 -25 -7 -55 0 -30 3 -55 7 -55 4 0 3 -13 -2 -30 -5 -16 -6 -30 -2
-30 4 0 6 -21 5 -47 -1 -27 -2 -48 -3 -48 -5 0 -4 -139 2 -148 3 -6 2 -19 -3
-28 -6 -11 -5 -20 1 -24 6 -4 7 -13 1 -24 -5 -9 -6 -23 -1 -31 4 -7 6 -18 4
-24 -7 -17 -10 -106 -4 -106 3 0 5 -20 5 -45 0 -25 -2 -45 -5 -45 -5 0 -4 -58
0 -70 1 -3 1 -9 0 -15 -5 -22 -2 -114 5 -124 3 -6 3 -11 -2 -11 -4 0 -8 -25
-8 -55 0 -30 3 -55 7 -55 4 0 3 -13 -2 -30 -5 -16 -5 -30 0 -30 4 0 5 -15 1
-33 -5 -18 -5 -41 -1 -52 4 -11 5 -24 2 -29 -7 -12 -9 -66 -2 -66 3 0 5 -18 5
-40 0 -22 -2 -40 -5 -40 -7 0 -5 -64 2 -76 3 -5 2 -18 -2 -29 -4 -11 -4 -30 1
-41 4 -12 5 -25 1 -28 -7 -8 -5 -124 4 -137 3 -5 2 -9 -3 -9 -6 0 -9 -68 -3
-77 2 -4 2 -72 0 -75 -5 -10 -4 -142 2 -151 3 -6 2 -19 -3 -28 -6 -11 -5 -20
1 -24 6 -4 7 -13 1 -24 -5 -9 -6 -23 -1 -31 4 -7 6 -18 4 -24 -7 -17 -10 -106
-4 -106 3 0 5 -20 5 -45 0 -25 -2 -45 -5 -45 -7 0 -5 -54 2 -66 3 -5 2 -18 -2
-29 -4 -11 -4 -30 1 -41 4 -12 5 -24 2 -27 -8 -9 -9 -137 -1 -150 3 -6 2 -19
-3 -28 -6 -11 -5 -20 1 -24 6 -4 7 -13 1 -24 -5 -9 -6 -23 -1 -31 4 -7 6 -18
4 -24 -7 -19 -10 -106 -4 -106 4 0 5 -14 2 -30 l-4 -30 81 0 c44 0 81 3 82 8
4 53 2 192 -3 192 -4 0 -5 6 -2 14 8 21 10 226 3 226 -4 0 -3 16 1 35 4 19 4
35 0 35 -5 0 -5 12 -1 28 5 15 5 37 0 49 -5 13 -4 25 1 28 6 3 6 15 0 30 -6
15 -6 25 0 25 5 0 5 12 0 30 -5 17 -5 32 0 35 5 3 5 16 0 30 -6 15 -6 27 0 30
6 3 6 15 0 30 -6 15 -6 27 0 30 6 3 6 15 0 30 -6 15 -6 25 0 25 5 0 5 12 1 28
-5 15 -5 37 0 49 5 13 4 25 -1 28 -6 3 -6 15 0 29 5 13 6 27 3 30 -6 5 -7 63
-3 84 3 11 3 126 0 137 -1 6 -1 15 0 20 2 14 3 128 0 140 -1 6 -1 15 0 20 2
14 3 128 0 140 -1 6 -2 12 -1 15 6 16 5 143 -1 153 -3 6 -2 19 3 28 6 11 5 20
-1 24 -6 4 -7 13 -1 24 5 9 6 23 1 31 -4 7 -4 24 0 36 6 14 5 26 0 29 -6 3 -6
15 0 30 6 15 6 27 0 30 -6 3 -6 15 0 30 6 15 6 27 0 30 -6 4 -7 13 -1 24 5 9
6 23 1 31 -4 7 -4 24 0 36 6 14 5 26 0 29 -6 3 -6 15 0 30 6 15 6 27 0 30 -6
3 -6 15 0 30 6 15 6 27 0 30 -6 4 -7 13 -1 24 5 9 6 23 1 31 -4 7 -4 24 0 36
6 14 5 26 0 29 -6 3 -6 15 0 30 6 15 6 27 0 30 -6 3 -6 15 0 30 6 15 6 27 0
30 -6 4 -7 13 -1 24 5 9 6 23 1 31 -4 7 -4 24 0 36 6 14 5 26 0 29 -6 3 -6 15
0 30 6 15 6 27 0 30 -6 3 -6 15 0 30 6 15 6 27 0 30 -6 4 -7 13 -1 24 5 9 6
23 1 31 -4 7 -6 18 -4 24 7 17 10 106 4 106 -4 0 -4 85 0 100 3 8 2 124 0 135
-1 6 -1 15 0 20 2 14 3 128 0 140 -1 6 -1 15 0 20 2 14 3 128 0 140 -1 6 -1
15 0 20 5 25 2 194 -4 203 -3 6 -2 13 3 17 7 3 7 15 1 30 -6 15 -6 27 0 30 6
3 6 15 0 30 -6 15 -6 27 0 30 6 3 6 15 0 30 -6 15 -6 25 0 25 5 0 5 12 0 30
-5 17 -5 32 0 35 5 3 5 16 0 30 -6 15 -6 27 0 30 6 3 6 15 0 30 -6 15 -6 27 0
30 6 3 6 15 0 30 -6 15 -6 25 0 25 5 0 5 12 0 30 -5 17 -6 30 -2 30 4 0 7 25
7 55 0 30 -3 55 -7 55 -4 0 -5 6 -2 14 8 22 10 226 2 226 -4 0 -5 6 -2 14 8
21 10 226 2 226 -4 0 -3 14 2 30 5 17 5 30 1 30 -4 0 -5 22 -1 48 3 27 3 61
-1 75 -4 15 -3 29 1 32 5 3 5 16 0 30 -6 15 -6 27 0 30 6 3 6 15 0 30 -6 15
-6 27 0 30 6 3 6 15 0 30 -6 15 -6 25 0 25 5 0 5 12 0 30 -5 17 -5 32 0 35 5
3 5 16 0 30 -6 15 -6 27 0 30 6 3 6 15 0 30 -6 15 -6 27 0 30 6 3 6 15 0 30
-6 15 -6 25 0 25 5 0 5 12 0 30 -5 17 -6 30 -2 30 4 0 7 25 7 55 0 30 -3 55
-7 55 -4 0 -5 6 -2 14 8 22 10 226 2 226 -4 0 -5 6 -2 14 8 21 10 226 2 226
-4 0 -3 14 2 30 5 17 5 30 1 30 -4 0 -5 22 -1 48 3 27 3 61 -1 75 -4 15 -3 29
1 32 5 3 5 16 0 30 -6 15 -6 27 0 30 6 3 6 15 0 30 -6 15 -6 27 0 30 6 3 6 15
0 30 -6 15 -6 25 0 25 5 0 5 12 0 30 -5 17 -5 32 0 35 5 3 5 16 0 30 -6 15 -6
27 0 30 6 3 6 15 0 30 -6 15 -6 27 0 30 6 3 6 15 0 30 -6 15 -6 25 0 25 5 0 5
12 0 30 -5 17 -6 30 -2 30 4 0 7 25 7 55 0 30 -3 55 -7 55 -4 0 -5 6 -2 14 8
22 10 226 2 226 -4 0 -5 6 -2 14 8 21 10 226 2 226 -4 0 -3 14 2 30 5 17 5 30
1 30 -4 0 -5 22 -1 48 3 27 3 61 -1 75 -4 15 -3 29 1 32 5 3 5 16 0 30 -6 15
-6 27 0 30 6 3 6 15 0 30 -6 15 -6 27 0 30 6 3 6 15 0 30 -6 15 -6 25 0 25 5
0 5 12 0 30 -5 17 -5 32 0 35 5 3 5 16 0 30 -6 15 -6 27 0 30 6 3 6 15 0 30
-6 15 -6 27 0 30 6 3 6 15 0 30 -6 15 -6 25 0 25 5 0 5 12 0 30 -5 17 -6 30
-2 30 4 0 7 25 7 55 0 30 -3 55 -7 55 -4 0 -5 6 -2 14 8 22 10 226 2 226 -4 0
-5 6 -2 14 8 21 10 226 2 226 -4 0 -3 14 2 30 5 17 5 30 1 30 -4 0 -6 14 -3
30 l4 30 -80 0 c-69 0 -81 -3 -84 -17z"/>
<path d="M2800 7405 c-46 -20 -90 -86 -90 -137 0 -104 97 -180 196 -154 70 19
108 60 118 129 8 50 -21 116 -62 146 -41 29 -116 36 -162 16z"/>
<path d="M5835 7406 c-102 -44 -122 -177 -40 -258 56 -56 164 -46 223 19 32
37 36 48 34 116 -2 97 -122 165 -217 123z"/>
<path d="M5877 6634 c-1 -1 -18 -4 -37 -7 -73 -9 -184 -86 -217 -150 -86 -167
-26 -371 133 -448 69 -33 111 -38 193 -25 148 24 261 151 264 295 1 36 -4 86
-11 111 -27 94 -120 185 -217 212 -36 10 -102 17 -108 12z"/>
<path d="M1519 6620 c-188 -47 -295 -260 -217 -431 27 -60 92 -139 113 -139 7
0 18 -6 24 -13 16 -20 88 -40 146 -41 123 -4 233 62 291 174 25 48 29 66 29
140 0 98 -20 152 -78 217 -71 79 -205 119 -308 93z"/>
<path d="M2770 6613 c-169 -57 -258 -240 -200 -408 11 -32 28 -67 38 -77 9
-10 30 -31 46 -47 87 -87 237 -112 347 -56 58 28 129 91 129 112 0 7 4 13 9
13 14 0 44 99 46 150 5 173 -129 318 -303 325 -41 2 -84 -3 -112 -12z"/>
<path d="M7091 6613 c-54 -13 -119 -53 -158 -94 -12 -13 -34 -51 -50 -84 -69
-151 6 -348 157 -409 25 -10 52 -21 60 -25 31 -15 154 -6 200 16 60 27 130 97
160 158 36 74 35 189 -2 265 -71 143 -216 212 -367 173z"/>
<path d="M5800 5509 c-89 -23 -130 -39 -130 -50 0 -5 -6 -9 -14 -9 -40 0 -196
-184 -196 -232 0 -10 -4 -18 -8 -18 -5 0 -9 -6 -9 -12 -1 -7 -5 -39 -10 -70
-26 -154 25 -308 140 -421 55 -54 166 -113 232 -122 22 -4 49 -8 60 -9 26 -5
142 12 180 26 172 61 288 190 321 358 9 42 11 161 4 175 -2 6 -6 21 -8 35 -6
46 -71 164 -114 208 -37 39 -119 102 -131 102 -3 0 -22 8 -43 17 -48 20 -54
22 -129 29 -33 3 -64 7 -70 8 -5 2 -39 -5 -75 -15z"/>
<path d="M2765 5505 c-170 -39 -326 -190 -361 -350 -13 -59 -12 -174 1 -224 7
-27 10 -52 7 -55 -3 -3 0 -6 6 -6 7 0 11 -3 10 -7 -4 -11 57 -113 84 -143 38
-41 100 -87 148 -108 86 -39 96 -42 187 -46 180 -10 347 79 437 234 44 75 59
130 61 232 3 99 -14 164 -65 254 -38 65 -138 164 -167 164 -7 0 -13 5 -13 10
0 6 -9 10 -19 10 -11 0 -22 4 -25 9 -18 29 -204 45 -291 26z"/>
<path d="M1506 5343 c-27 -8 -66 -25 -87 -38 -39 -25 -106 -101 -102 -116 2
-5 -1 -9 -6 -9 -12 0 -34 -86 -36 -139 -2 -76 40 -175 97 -227 163 -150 404
-108 505 87 24 47 28 65 28 139 0 71 -4 94 -25 135 -69 140 -230 212 -374 168z"/>
<path d="M7097 5349 c-52 -12 -93 -35 -139 -77 -162 -150 -126 -414 70 -513
57 -28 62 -29 132 -33 92 -4 170 26 237 93 157 157 105 420 -101 512 -51 22
-142 31 -199 18z"/>
<path d="M8071 5194 c-111 -47 -137 -181 -51 -266 58 -56 165 -52 222 10 45
48 54 108 26 173 -31 73 -125 113 -197 83z"/>
<path d="M592 5193 c-38 -7 -99 -73 -107 -117 -29 -150 154 -251 263 -145 65
64 65 159 -2 225 -34 33 -92 47 -154 37z"/>
<path d="M2808 4239 c-7 -4 -15 -6 -18 -4 -12 7 -103 -25 -159 -56 -98 -54
-197 -181 -226 -289 -13 -50 -14 -187 -1 -236 58 -221 244 -363 473 -362 42 0
94 6 115 14 21 7 39 13 41 13 11 -2 67 27 105 53 85 58 144 133 183 233 17 42
19 52 25 123 23 239 -148 463 -386 508 -50 9 -139 11 -152 3z"/>
<path d="M5775 4233 c-22 -8 -44 -15 -50 -17 -5 -2 -12 -3 -15 -3 -11 2 -127
-84 -155 -114 -65 -72 -107 -155 -122 -237 -13 -76 -5 -201 16 -240 5 -9 9
-21 9 -25 2 -28 56 -111 107 -163 95 -96 221 -147 345 -138 59 4 105 10 105
14 0 1 9 3 19 5 48 9 151 71 201 121 57 57 118 167 130 234 31 168 -14 320
-130 436 -63 63 -102 88 -190 120 -62 22 -212 26 -270 7z"/>
<path d="M7177 4083 c-4 -3 -28 -8 -53 -10 -138 -10 -264 -151 -266 -297 -1
-78 7 -110 39 -166 108 -185 362 -217 503 -64 149 162 100 411 -98 504 -23 11
-55 22 -71 24 -15 2 -33 6 -38 9 -6 4 -13 4 -16 0z"/>
<path d="M1497 4065 c-228 -78 -294 -347 -127 -516 192 -194 512 -80 537 192
6 59 -12 159 -28 159 -5 0 -9 7 -9 15 0 24 -91 109 -145 134 -59 28 -170 36
-228 16z"/>
<path d="M605 3921 c-48 -12 -84 -41 -107 -84 -19 -38 -20 -58 -6 -127 10 -47
83 -100 139 -101 117 -3 197 112 153 220 -17 40 -46 67 -93 87 -36 15 -41 15
-86 5z"/>
<path d="M8073 3909 c-57 -22 -93 -64 -100 -118 -3 -20 -7 -38 -9 -40 -2 -2 8
-24 20 -50 23 -44 72 -84 106 -87 8 -1 24 -3 35 -4 46 -5 66 2 103 38 72 68
75 164 7 228 -49 45 -99 56 -162 33z"/>
<path d="M5830 2809 c-19 -5 -39 -11 -45 -12 -59 -17 -134 -86 -171 -159 -39
-75 -40 -188 -3 -269 54 -114 159 -182 285 -183 185 0 325 142 318 326 -4 97
-46 172 -139 247 -49 39 -182 66 -245 50z"/>
<path d="M7115 2805 c-75 -14 -111 -33 -164 -85 -41 -41 -95 -135 -86 -151 3
-4 1 -10 -3 -13 -15 -9 -4 -132 14 -173 10 -21 18 -41 18 -44 2 -16 84 -97
118 -118 37 -22 146 -50 183 -46 38 3 125 29 125 37 0 4 6 8 13 8 15 1 75 56
103 95 11 17 27 48 36 70 16 42 22 167 9 194 -43 90 -59 116 -94 147 -43 39
-112 74 -161 81 -17 2 -35 5 -41 7 -5 1 -37 -2 -70 -9z"/>
<path d="M1492 2795 c-67 -21 -171 -107 -172 -142 0 -7 -4 -13 -8 -13 -4 0
-14 -21 -22 -47 -45 -154 20 -309 161 -379 44 -23 163 -47 174 -35 3 2 13 5
23 6 131 13 250 143 260 286 16 227 -197 393 -416 324z"/>
<path d="M2769 2797 c-132 -49 -210 -155 -215 -292 -7 -187 142 -333 331 -326
42 2 131 29 147 45 7 7 23 18 35 25 31 16 100 120 108 162 32 160 -33 302
-170 369 -60 30 -179 38 -236 17z"/>
<path d="M5875 1703 c-72 -14 -123 -66 -131 -134 -12 -101 60 -183 159 -180
135 4 202 158 112 257 -33 36 -102 64 -140 57z"/>
<path d="M2795 1680 c-125 -62 -105 -253 30 -285 6 -2 15 -4 20 -6 6 -2 31 0
57 5 38 6 54 15 82 47 53 63 57 133 8 196 -47 63 -124 80 -197 43z"/>
</g>
</svg>
