<svg aria-hidden="true" xmlns="http://www.w3.org/2000/svg" viewBox="0 0 185 55">
  <path fill="#000" d="M66.937 12.483h6.053l6.694 10.763 6.709-10.763h6.039v25.442h-5.585V21.316l-7.163 10.871h-.151l-7.09-10.799v16.5h-5.506V12.484zm68.558 0H145.9c6.082 0 9.757 3.6 9.757 8.797v.072c0 5.89-4.59 8.942-10.297 8.942h-4.259v7.63h-5.606v-25.44zm10.045 12.829c2.803 0 4.439-1.67 4.439-3.852v-.072c0-2.505-1.744-3.851-4.547-3.851h-4.324v7.775h4.432zm19.305-12.829h10.405c6.075 0 9.75 3.6 9.75 8.797v.072c0 5.89-4.583 8.942-10.29 8.942h-4.259v7.63h-5.606v-25.44zm10.045 12.829c2.803 0 4.439-1.67 4.439-3.852v-.072c0-2.505-1.751-3.851-4.547-3.851h-4.324v7.775h4.432zm-50.327-2.685h-21.135v4.981h21.135v-4.981zm.18 10.323h-21.315v4.982h21.315V32.95zm-.18-20.467h-21.135v4.982h21.135v-4.982z"/>
  <path fill="#2DADFF" d="M6.968 29.502a1.997 1.997 0 00-2.003 1.95A2 2 0 006.96 33.44a2.004 2.004 0 001.989-1.987 1.993 1.993 0 00-1.982-1.951zm0 7.919a1.997 1.997 0 00-2.003 1.98 1.993 1.993 0 003.985 0 1.993 1.993 0 00-1.982-1.98zm0-15.903a2.005 2.005 0 00-2.003 1.98 1.993 1.993 0 003.985 0 2 2 0 00-1.982-1.987v.007zm-5.974.994a.995.995 0 00-.994.993.993.993 0 001.698.667.993.993 0 00.29-.703.993.993 0 00-.994-.965v.008zm5.974-8.942a1.997 1.997 0 00-2.003 1.98 1.993 1.993 0 003.985 0 1.993 1.993 0 00-1.982-1.987v.007zM.994 30.466A.995.995 0 000 31.46a1 1 0 00.994.993 1.002 1.002 0 00.921-1.376.994.994 0 00-.92-.618v.008zm13.93 13.909a.995.995 0 00-.995.965.993.993 0 001.698.702.993.993 0 00.291-.702.993.993 0 00-.994-.972v.007zm0-33.785a.994.994 0 00.994-.994.993.993 0 00-1.697-.68.993.993 0 00-.292.702.993.993 0 00.995.965v.007zm0 6.954a1.997 1.997 0 001.989-1.987 1.993 1.993 0 00-1.99-1.987 1.997 1.997 0 00-1.988 1.987 1.993 1.993 0 001.989 1.98v.007zm0 10.936a2.98 2.98 0 00-2.758 1.838 2.98 2.98 0 002.758 4.122 2.986 2.986 0 002.784-1.838 2.98 2.98 0 00.228-1.15 2.97 2.97 0 00-1.86-2.763 2.979 2.979 0 00-1.152-.217v.008zm0-7.955a2.985 2.985 0 00-2.758 4.122 2.973 2.973 0 002.758 1.838 2.98 2.98 0 002.786-1.837c.151-.364.228-.756.226-1.15a2.979 2.979 0 00-3.012-2.98v.007zm0 16.896a1.997 1.997 0 00-1.99 1.987 1.993 1.993 0 001.99 1.987 1.997 1.997 0 001.989-1.987 1.993 1.993 0 00-1.99-1.987zm26.9-11.936a1.997 1.997 0 001.988-1.987 1.993 1.993 0 00-1.988-1.987 1.997 1.997 0 00-1.99 1.987 1.993 1.993 0 001.99 1.987zm0-7.92a1.997 1.997 0 001.988-1.986 1.993 1.993 0 00-1.988-1.987 1.997 1.997 0 00-1.99 1.987 1.993 1.993 0 001.99 1.958v.029zm0 15.903a1.997 1.997 0 001.988-1.987 1.993 1.993 0 00-1.988-1.98 1.997 1.997 0 00-1.99 1.988 1.993 1.993 0 001.99 1.95v.03zm5.966-.993a1.002 1.002 0 00.995-.994.993.993 0 00-1.698-.702.993.993 0 00-.291.703 1 1 0 00.994.964v.029zm-5.966 8.941a1.997 1.997 0 000-3.995 1.997 1.997 0 00-1.99 1.987 1.993 1.993 0 001.99 1.98v.028zm5.966-16.954a.995.995 0 00.703-1.695.994.994 0 10-.703 1.695zM33.868 10.554a.995.995 0 00.995-.994.994.994 0 00-1.375-.86.994.994 0 00-.614.918.993.993 0 00.994.965v-.03zm0 33.785a.993.993 0 00-.994 1 .993.993 0 001.697.703.993.993 0 00.292-.702.993.993 0 00-.995-.972v-.029zm0-6.954a1.997 1.997 0 00-1.989 1.987 1.993 1.993 0 001.99 1.987 1.997 1.997 0 001.988-1.987 1.994 1.994 0 00-1.989-1.951v-.036zm0-10.936a2.98 2.98 0 002.758-1.838 2.979 2.979 0 00-2.758-4.122 2.987 2.987 0 00-2.745 1.864c-.147.364-.22.753-.216 1.145a2.972 2.972 0 002.961 2.98v-.029zm0 7.955a2.985 2.985 0 002.758-4.122 2.974 2.974 0 00-5.505.025 2.97 2.97 0 00-.214 1.146 2.979 2.979 0 002.961 2.98v-.029zm0-16.896a1.997 1.997 0 001.989-1.987 1.993 1.993 0 00-1.989-1.987 1.997 1.997 0 00-1.989 1.987 1.991 1.991 0 001.223 1.86c.242.102.503.155.766.156v-.029zM25 0h-1v55h1V0z"/>
</svg>
